HIERARCHY
ROOT Pelvis
{
	OFFSET 0.000000 0.000000 0.000000
	CHANNELS 6 Xposition Yposition Zposition Xrotation Yrotation Zrotation
	JOINT LeftUpLeg_virtual
	{
		OFFSET 0.000000 0.000000 0.000000
		CHANNELS 3 Xrotation Yrotation Zrotation
		JOINT LeftUpLeg
		{
			OFFSET 18.735201 -5.666702 -4.541200
			CHANNELS 3 Xrotation Yrotation Zrotation
			JOINT LeftLeg
			{
				OFFSET -0.021200 -31.938179 0.493100
				CHANNELS 3 Xrotation Yrotation Zrotation
				JOINT LeftFoot
				{
					OFFSET 0.021200 -31.938179 -4.336299
					CHANNELS 3 Xrotation Yrotation Zrotation
					JOINT LeftToeBase
					{
						OFFSET 0.943001 -26.722000 15.023500
						CHANNELS 3 Xrotation Yrotation Zrotation
						End Site
						{
							OFFSET 0 0 0
						}
					}
				}
			}
		}
	}
	JOINT RightUpLeg_virtual
	{
		OFFSET 0.000000 0.000000 0.000000
		CHANNELS 3 Xrotation Yrotation Zrotation
		JOINT RightUpLeg
		{
			OFFSET -18.735201 -5.666702 -4.541200
			CHANNELS 3 Xrotation Yrotation Zrotation
			JOINT RightLeg
			{
				OFFSET 0.018946 -31.938133 0.493100
				CHANNELS 3 Xrotation Yrotation Zrotation
				JOINT RightFoot
				{
					OFFSET -0.018946 -31.938126 -4.336299
					CHANNELS 3 Xrotation Yrotation Zrotation
					JOINT RightToeBase
					{
						OFFSET -0.943001 -26.722004 15.023500
						CHANNELS 3 Xrotation Yrotation Zrotation
						End Site
						{
							OFFSET 0 0 0
						}
					}
				}
			}
		}
	}
	JOINT Hips_virtual
	{
		OFFSET 0.000000 0.000000 0.000000
		CHANNELS 3 Xrotation Yrotation Zrotation
		JOINT Hips
		{
			OFFSET -0.000000 -0.000000 -0.000000
			CHANNELS 3 Xrotation Yrotation Zrotation
			JOINT Spine
			{
				OFFSET 0.000000 10.199997 -0.299500
				CHANNELS 3 Xrotation Yrotation Zrotation
				JOINT Spine1
				{
					OFFSET 0.000000 11.900002 -1.516600
					CHANNELS 3 Xrotation Yrotation Zrotation
					JOINT Spine2
					{
						OFFSET 0.000000 13.600006 -2.842500
						CHANNELS 3 Xrotation Yrotation Zrotation
						JOINT Neck_virtual
						{
							OFFSET 0.000000 0.000000 0.000000
							CHANNELS 3 Xrotation Yrotation Zrotation
							JOINT Neck
							{
								OFFSET 0.000000 9.624100 -2.890100
								CHANNELS 3 Xrotation Yrotation Zrotation
								JOINT Head
								{
									OFFSET 0.000000 14.068802 -1.351900
									CHANNELS 3 Xrotation Yrotation Zrotation
									End Site
									{
										OFFSET 0 0 0
									}
								}
							}
						}
						JOINT LeftShoulder_virtual
						{
							OFFSET 0.000000 0.000000 0.000000
							CHANNELS 3 Xrotation Yrotation Zrotation
							JOINT LeftShoulder
							{
								OFFSET 15.263000 10.923401 -0.547700
								CHANNELS 3 Xrotation Yrotation Zrotation
								JOINT LeftArm
								{
									OFFSET 25.438599 -2.830597 -13.032500
									CHANNELS 3 Xrotation Yrotation Zrotation
									JOINT LeftForeArm
									{
										OFFSET 29.960503 0.000000 0.000000
										CHANNELS 3 Xrotation Yrotation Zrotation
										JOINT LeftHand
										{
											OFFSET 27.849251 0.000000 0.000000
											CHANNELS 3 Xrotation Yrotation Zrotation
											End Site
											{
												OFFSET 0 0 0
											}
										}
									}
								}
							}
						}
						JOINT RightShoulder_virtual
						{
							OFFSET 0.000000 0.000000 0.000000
							CHANNELS 3 Xrotation Yrotation Zrotation
							JOINT RightShoulder
							{
								OFFSET -15.263000 10.923401 -0.547700
								CHANNELS 3 Xrotation Yrotation Zrotation
								JOINT RightArm
								{
									OFFSET -25.438599 -2.830597 -13.032500
									CHANNELS 3 Xrotation Yrotation Zrotation
									JOINT RightForeArm
									{
										OFFSET -29.960503 0.000000 0.000000
										CHANNELS 3 Xrotation Yrotation Zrotation
										JOINT RightHand
										{
											OFFSET -27.849251 0.000000 0.000000
											CHANNELS 3 Xrotation Yrotation Zrotation
											End Site
											{
												OFFSET 0 0 0
											}
										}
									}
								}
							}
						}
					}
				}
			}
		}
	}
}
MOTION
Frames: 12
Frame Time: 0.03333333
7.996038 88.045029 -9.481813 0.000000 0.000000 0.000000 11.322478 8.559250 -0.997775 -9.498466 13.749791 11.331094 36.639617 1.053327 3.771881 1.499377 -1.413493 -11.952882 0.000000 0.000000 0.000000 11.322478 8.559250 -0.997775 -49.578144 -5.470724 -8.223487 49.294636 -1.538415 3.628974 -7.602588 2.103684 -1.358872 0.000000 0.000000 0.000000 11.322478 8.559250 -0.997775 -0.000001 0.000000 0.000000 4.662417 -1.426606 0.333923 0.605669 -2.990263 3.348217 0.000000 0.000000 0.000000 0.632969 -3.010483 3.359031 -1.248301 0.199324 1.354539 0.000000 0.000000 0.000000 0.632969 -3.010483 3.359031 0.028837 0.485800 0.321203 -37.094631 -12.101453 -49.437176 -179.999991 -66.162622 -179.999991 0.000000 0.000000 0.000000 0.632969 -3.010483 3.359031 -0.713608 -10.227974 7.452261 -37.185288 7.525139 49.482262 180.000005 57.602715 179.999991 0.000000 0.000000 0.000000 
7.993722 88.786301 -11.592445 0.000000 0.000000 0.000000 14.005258 9.168698 -1.850238 -24.662853 12.544192 12.881586 44.043946 -3.714849 0.164303 21.862179 -2.774297 -1.506746 0.000000 0.000000 0.000000 14.005258 9.168698 -1.850238 -51.435313 -5.230723 -6.800571 51.877694 -2.308857 3.194438 -3.671114 2.129353 -1.618773 0.000000 0.000000 0.000000 14.005258 9.168698 -1.850238 0.000000 0.000000 0.000000 3.839191 -0.780737 1.350522 3.030184 -2.333151 2.316411 0.000000 0.000000 0.000000 3.025681 -2.337051 2.305679 -1.346412 0.311655 0.782699 0.000000 0.000000 0.000000 3.025681 -2.337051 2.305679 0.226643 -3.126609 5.972566 -55.645507 -11.976973 -43.754496 -179.999909 -69.485242 -179.999923 0.000000 0.000000 0.000000 3.025681 -2.337051 2.305679 -1.787735 -12.486582 1.915336 -57.494115 10.708990 49.479915 180.000005 64.133489 179.999991 0.000000 0.000000 0.000000 
7.775440 88.479980 -13.152082 0.000000 0.000000 0.000000 15.060174 8.611460 -1.901597 -42.211734 9.179552 15.567840 69.345941 -3.041774 -0.503778 20.380120 -1.865891 4.923716 0.000000 0.000000 0.000000 15.060174 8.611460 -1.901597 -49.892418 -4.854865 -4.872620 57.894657 -4.545160 2.583947 -6.218663 2.388769 -2.736850 0.000000 0.000000 0.000000 15.060174 8.611460 -1.901597 0.000000 0.000000 0.000000 4.252091 -0.474013 1.652917 5.525776 -2.007907 1.460071 0.000000 0.000000 0.000000 5.509995 -2.001090 1.443115 -1.527417 0.475988 0.202428 0.000000 0.000000 0.000000 5.509995 -2.001090 1.443115 0.256384 -4.260463 17.532845 -70.525064 -4.093751 -37.545082 179.999882 -75.168643 179.999882 0.000000 0.000000 0.000000 5.509995 -2.001090 1.443115 -4.311115 -16.380942 -8.167936 -75.846655 5.206703 53.753500 -179.999021 75.375591 179.999062 0.000000 0.000000 0.000000 
7.421595 88.860367 -14.486395 0.000000 0.000000 0.000000 12.530176 8.548832 -0.309899 -52.101776 7.912825 15.549079 86.469116 2.765134 0.979659 19.194471 0.192343 11.562867 0.000000 0.000000 0.000000 12.530176 8.548832 -0.309899 -42.412514 -5.158478 -4.474792 57.508595 -5.675114 1.766602 -14.877632 2.847223 -3.669558 0.000000 0.000000 0.000000 12.530176 8.548832 -0.309899 0.000000 -0.000001 0.000000 11.198893 -0.898770 0.125477 4.641892 -2.434680 1.215398 0.000000 0.000000 0.000000 4.643786 -2.376273 1.240035 -1.778181 0.650317 -0.230739 0.000000 0.000000 0.000000 4.643786 -2.376273 1.240035 -0.549386 -2.146079 27.836928 -72.667120 1.178759 -29.946674 179.999281 -82.576010 179.999267 0.000000 0.000000 0.000000 4.643786 -2.376273 1.240035 -8.667455 -18.781804 -25.118366 -79.985784 -4.358374 54.700506 179.999923 84.691901 -179.999868 0.000000 0.000000 0.000000 
7.040553 89.165329 -15.025879 0.000000 0.000000 0.000000 10.827863 9.005500 2.108661 -57.475536 9.080567 14.646248 92.098892 7.595062 1.927399 19.152774 0.461782 16.402778 0.000000 0.000000 0.000000 10.827863 9.005500 2.108661 -37.496857 -6.469454 -5.161285 55.130213 -5.991503 0.934525 -23.197139 4.005562 -6.376551 0.000000 0.000000 0.000000 10.827863 9.005500 2.108661 0.000001 0.000001 -0.000000 16.295243 -1.798734 -3.878385 2.584060 -2.735304 1.265199 0.000000 0.000000 0.000000 2.641294 -2.664699 1.362576 -2.079267 0.753927 -0.076859 0.000000 0.000000 0.000000 2.641294 -2.664699 1.362576 -0.696177 -2.093741 30.730507 -66.963270 1.059128 -26.541967 179.999445 -85.929797 179.999472 0.000000 0.000000 0.000000 2.641294 -2.664699 1.362576 -9.480940 -17.572712 -29.617838 -74.873244 -4.107924 50.276165 -179.997095 89.507027 179.996877 0.000000 0.000000 0.000000 
6.445228 89.964226 -14.592943 0.000000 0.000000 0.000000 13.654291 7.030887 3.044384 -61.289719 11.086021 15.701285 87.314570 5.570583 0.763824 16.379992 0.134012 16.327699 0.000000 0.000000 0.000000 13.654291 7.030887 3.044384 -39.452908 -6.233409 -5.631501 52.111990 -6.729674 1.192261 -21.487618 3.924696 -6.245154 0.000000 0.000000 0.000000 13.654291 7.030887 3.044384 0.000000 0.000000 0.000000 14.007645 -1.497128 -7.277048 1.769763 -2.049462 0.919861 0.000000 0.000000 0.000000 1.808718 -2.056910 0.974189 -2.095577 0.639616 0.395908 0.000000 0.000000 0.000000 1.808718 -2.056910 0.974189 0.436171 -5.182430 24.206815 -59.301239 -0.248138 -25.445836 179.999964 -81.803482 179.999950 0.000000 0.000000 0.000000 1.808718 -2.056910 0.974189 -6.512471 -13.611457 -20.925599 -64.068868 0.388897 44.479479 179.999090 84.679654 -179.999103 0.000000 0.000000 0.000000 
5.673579 91.813461 -13.798288 0.000000 0.000000 0.000000 17.038962 2.077772 2.224272 -61.716968 12.405709 18.406747 74.860540 -0.016161 -1.843138 10.991327 -2.412795 12.646452 0.000000 0.000000 0.000000 17.038962 2.077772 2.224272 -39.717851 -7.321077 -6.388199 43.752539 -4.608240 4.250612 -11.053347 2.820074 -3.438816 0.000000 0.000000 0.000000 17.038962 2.077772 2.224272 0.000001 0.000000 0.000000 10.597949 -0.126116 -9.564070 2.082283 -0.951033 1.865387 0.000000 0.000000 0.000000 2.049105 -0.920625 1.869607 -2.753156 0.756468 0.387391 0.000000 0.000000 0.000000 2.049105 -0.920625 1.869607 0.229146 -3.347759 10.040519 -48.911606 -2.302251 -28.635993 179.999663 -74.658325 179.999650 0.000000 0.000000 0.000000 2.049105 -0.920625 1.869607 -3.572932 -8.597347 -12.730120 -50.834964 -1.445656 43.140954 179.999937 75.849865 -179.999950 0.000000 0.000000 0.000000 
5.299766 92.694229 -12.786608 0.000000 0.000000 0.000000 18.412020 -1.962557 -0.711657 -61.747915 11.665903 20.202911 60.332338 -9.343197 -4.133483 9.493850 -4.595867 9.212154 0.000000 0.000000 0.000000 18.412020 -1.962557 -0.711657 -33.244809 -8.916235 -1.536453 35.192546 -2.336339 5.684383 -4.787070 2.943877 -5.966878 0.000000 0.000000 0.000000 18.412020 -1.962557 -0.711657 0.000001 0.000000 0.000000 8.006700 1.040909 -8.897394 3.054361 -0.292415 3.242828 0.000000 0.000000 0.000000 2.968204 -0.193059 3.250012 -3.863583 0.981885 0.288079 0.000000 0.000000 0.000000 2.968204 -0.193059 3.250012 0.172027 2.174561 -0.735965 -34.652152 -1.097480 -37.897820 -179.999896 -70.575826 -179.999896 0.000000 0.000000 0.000000 2.968204 -0.193059 3.250012 -1.171137 -4.644302 -2.396870 -38.878188 -4.234490 43.396327 179.999950 72.502963 -179.999950 0.000000 0.000000 0.000000 
5.456706 90.621635 -11.345417 0.000000 0.000000 0.000000 19.397126 -2.284115 -3.949933 -63.413580 9.387573 18.590201 51.028661 -9.308859 -3.465134 12.695717 -12.333966 6.708088 0.000000 0.000000 0.000000 19.397126 -2.284115 -3.949933 -22.598933 -6.907050 5.934146 33.001268 -6.984905 4.059643 -13.102172 4.545911 -10.659230 0.000000 0.000000 0.000000 19.397126 -2.284115 -3.949933 -0.000003 0.000000 0.000000 3.338929 1.218653 -5.522815 4.145132 -0.479512 3.019602 0.000000 0.000000 0.000000 4.090379 -0.421676 3.056990 -4.261074 0.870501 0.677253 0.000000 0.000000 0.000000 4.090379 -0.421676 3.056990 1.299670 8.313721 -18.538238 -23.414947 -4.076957 -36.861889 -179.999923 -71.409846 -179.999923 0.000000 0.000000 0.000000 4.090379 -0.421676 3.056990 0.800825 -5.189614 15.888313 -28.930755 -3.466009 38.330001 -179.999937 73.383464 179.999937 0.000000 0.000000 0.000000 
5.595150 87.336441 -10.138187 0.000000 0.000000 0.000000 19.383751 0.261584 -4.757522 -61.438310 9.253398 11.836856 58.283889 -8.907006 1.940969 -10.374456 -10.147927 7.385750 0.000000 0.000000 0.000000 19.383751 0.261584 -4.757522 -9.354058 -5.063021 7.189216 28.002171 -11.186857 3.511736 -23.294746 2.726358 -7.863073 0.000000 0.000000 0.000000 19.383751 0.261584 -4.757522 -0.000001 0.000000 0.000000 -1.621570 0.714869 -3.814098 4.595005 -0.930338 1.691647 0.000000 0.000000 0.000000 4.571619 -0.884402 1.723336 -3.675364 0.434817 1.282263 0.000000 0.000000 0.000000 4.571619 -0.884402 1.723336 2.250730 14.730208 -25.211405 -12.683117 -3.096782 -42.117323 -179.999896 -72.495081 -179.999909 0.000000 0.000000 0.000000 4.571619 -0.884402 1.723336 1.689541 -11.673688 23.414720 -15.200200 -7.772728 45.249710 -179.999827 73.441104 179.999827 0.000000 0.000000 0.000000 
5.901806 83.119858 -9.446350 0.000000 0.000000 0.000000 18.246283 1.553230 -3.916669 -58.668757 8.199621 8.711865 66.454810 -9.016169 6.380699 -26.758123 -3.021146 0.772703 0.000000 0.000000 0.000000 18.246283 1.553230 -3.916669 -0.126698 -6.890726 3.712173 26.582528 -10.398433 4.236488 -35.365032 3.503617 -0.304660 0.000000 0.000000 0.000000 18.246283 1.553230 -3.916669 0.000000 0.000000 0.000000 -4.853380 0.876279 -3.272833 4.559461 -0.775599 0.145617 0.000000 0.000000 0.000000 4.536193 -0.601874 0.200891 -2.880744 0.100027 1.529784 0.000000 0.000000 0.000000 4.536193 -0.601874 0.200891 0.765915 16.558236 -16.123807 -3.982592 0.712758 -56.858705 -179.999991 -70.419332 179.999991 0.000000 0.000000 0.000000 4.536193 -0.601874 0.200891 0.216218 -18.442819 15.443546 -0.042290 -9.626148 62.429145 -179.999718 71.680008 179.999718 0.000000 0.000000 0.000000 
5.912584 81.472092 -10.047354 0.000000 0.000000 0.000000 17.765102 -1.698814 -2.591221 -59.671176 8.436666 10.214490 70.699029 -8.227469 5.433755 -29.579230 -1.781145 0.237063 0.000000 0.000000 0.000000 17.765102 -1.698814 -2.591221 -4.395858 -8.292410 1.130682 35.167001 -4.512367 3.403050 -41.961530 3.628790 -1.178413 0.000000 0.000000 0.000000 17.765102 -1.698814 -2.591221 -0.000001 0.000000 0.000000 -3.416382 1.608736 -3.783509 2.896685 -0.006679 -0.105206 0.000000 0.000000 0.000000 2.863301 0.135301 -0.002498 -2.438608 0.104906 1.526561 0.000000 0.000000 0.000000 2.863301 0.135301 -0.002498 -0.149004 15.183709 -10.311600 -4.868213 2.632965 -59.965058 179.999964 -67.529944 179.999964 0.000000 0.000000 0.000000 2.863301 0.135301 -0.002498 -1.014297 -17.669686 9.235959 1.389518 -8.826287 65.503741 -179.999964 68.285588 179.999950 0.000000 0.000000 0.000000 
